<svg data-name="Layer 1" xmlns="http://www.w3.org/2000/svg" viewBox="0 0 875.2 774.72"><title>icon-customized</title><path fill="none" stroke="#011c5c" stroke-miterlimit="10" stroke-width="33.746" d="M622.75 572.75v50h-50"/><path fill="none" stroke="#011c5c" stroke-miterlimit="10" stroke-width="33.746" stroke-dasharray="101.17579650878906,50.58789825439453" d="M522.16 622.75H92.17"/><path fill="none" stroke="#011c5c" stroke-miterlimit="10" stroke-width="33.746" d="M66.87 622.75h-50v-50"/><path fill="none" stroke="#011c5c" stroke-miterlimit="10" stroke-width="33.746" stroke-dasharray="101.17569732666016,50.587799072265625" d="M16.87 522.16V92.17"/><path fill="none" stroke="#011c5c" stroke-miterlimit="10" stroke-width="33.746" d="M16.87 66.87v-50h50"/><path fill="none" stroke="#011c5c" stroke-miterlimit="10" stroke-width="33.746" stroke-dasharray="101.17579650878906,50.58789825439453" d="M117.46 16.87h430"/><path fill="none" stroke="#011c5c" stroke-miterlimit="10" stroke-width="33.746" d="M572.75 16.87h50v50"/><path fill="none" stroke="#011c5c" stroke-miterlimit="10" stroke-width="33.746" stroke-dasharray="101.17569732666016,50.587799072265625" d="M622.75 117.46v430"/><path fill="#011c5c" d="M146.84 168.84h605.88v605.88H146.84z"/><path d="M556.63 331.01l5.05-1.64c14.22 4.09 25.79 13.9 38.46 21.7 80.11 49.33 160.77 100.94 243 150.67 5.84 3.53 15 9.15 16.68 14.82 6.11 21.26-37.58 19.44-53.06 21.43-18 2.32-33.66 4.33-49 6.14 17.35 24.13 38.68 51.91 58 77.48 6.68 8.85 15.54 17.48 18.48 26.8 4.71 14.95-2.54 25.92-14.11 33.9l-8.21 2.67c-20.94 2.8-28.79-14-41.13-29.91-18.76-24.16-43.13-56.05-59.45-77.7-9.59 24.79-17.94 50.37-26.82 76.42-2.88 8.43-3.48 20.62-14 23.4-16.73 4.41-20.73-25.13-27-44.29l-81.23-250c-7.02-21.71-19.39-44.3-5.66-51.89z" fill="#011c5c" stroke="#fff" stroke-miterlimit="10" stroke-width="29.6" fill-rule="evenodd" data-name="8AtwOt"/></svg>