<svg data-name="Layer 1" xmlns="http://www.w3.org/2000/svg" viewBox="0 0 1728.49 985.13"><title>icon-flag</title><path fill="#011c5c" d="M15.34 15.34h708.73v599.88H15.34z"/><path fill="none" stroke="#011c5c" stroke-miterlimit="10" stroke-width="33.746" d="M724.07 201.64h985.02M724.07 404.11h985.02M724.07 598.49h985.02M22.16 776.66h1686.93"/><path fill="#fff" d="M283.79 208.74l8.97 58.7-52.05-28.59-53.05 26.67 11.1-58.34-41.75-42.22 58.91-7.46 27.25-52.76 25.3 53.72 58.6 9.62-43.28 40.66zm235.49 0l8.97 58.7-52.05-28.59-53.05 26.67 11.1-58.34-41.75-42.22 58.91-7.46 27.25-52.76 25.3 53.72 58.6 9.62-43.28 40.66zM283.79 423.41l8.97 58.7-52.05-28.59-53.05 26.67 11.1-58.34-41.75-42.22 58.91-7.46 27.25-52.76 25.3 53.72 58.6 9.62-43.28 40.66zm235.49 0l8.97 58.7-52.05-28.59-53.05 26.67 11.1-58.34-41.75-42.22 58.91-7.46 27.25-52.76 25.3 53.72 58.6 9.62-43.28 40.66z"/><path fill="none" stroke="#011c5c" stroke-miterlimit="10" stroke-width="30.687" d="M15.34 15.34h1697.8v954.44H15.34z"/></svg>