<svg width="48" height="48" viewBox="0 0 48 48" xmlns="http://www.w3.org/2000/svg"><title>linkedin</title><path d="M24 0c6.63 0 12.287 2.343 16.972 7.028C45.657 11.713 48 17.37 48 24c0 6.63-2.343 12.287-7.028 16.972C36.287 45.657 30.63 48 24 48c-6.63 0-12.287-2.343-16.972-7.028C2.343 36.287 0 30.63 0 24c0-6.63 2.343-12.287 7.028-16.972C11.713 2.343 17.37 0 24 0zm-7 36V19h-6v17h6zm-3-20c1.185 0 2.148-.333 2.889-1 .74-.667 1.111-1.5 1.111-2.5-.037-1.037-.417-1.88-1.139-2.528C16.14 9.324 15.185 9 14 9c-1.185 0-2.148.333-2.889 1-.74.667-1.111 1.5-1.111 2.5s.361 1.833 1.083 2.5c.723.667 1.676 1 2.861 1H14zm25 20v-9c0-2.74-.63-4.926-1.889-6.556C35.851 18.814 34.148 18 32 18c-1.185 0-2.213.324-3.083.972-.87.648-1.51 1.528-1.917 2.64L26.778 19h-5.945L21 23v13h6v-9c0-1.222.26-2.194.778-2.917.518-.722 1.24-1.083 2.166-1.083C31.981 23 33 24.333 33 27v9h6z" fill-rule="evenodd"/></svg>