<svg width="48" height="30" viewBox="0 0 48 30" xmlns="http://www.w3.org/2000/svg"><title>Page 1</title><path d="M41.652 3.108H5.917c5.753 4.801 11.285 9.455 16.892 14.019.381.31 1.45.158 1.966-.158 1.034-.63 1.902-1.53 2.846-2.31 4.593-3.783 9.188-7.564 14.03-11.551M3.075 4.84v22.023H44.35V4.943c-2.476 1.969-4.743 3.727-6.962 5.544-4.166 3.41-8.275 6.893-12.496 10.234-.486.384-1.775.381-2.281.005-2.535-1.884-4.932-3.954-7.38-5.956-3.942-3.222-7.886-6.442-12.157-9.93m20.68 25.138c-7.113 0-14.226.004-21.338-.002-2.21-.002-2.41-.2-2.412-2.397C-.002 19.19 0 10.8.004 2.411.005.201.201.004 2.404.003c14.226-.004 28.452-.004 42.677 0 2.208 0 2.41.203 2.412 2.398.006 8.39.006 16.779 0 25.169-.001 2.207-.198 2.404-2.4 2.406-7.113.006-14.226.002-21.34.002" fill-rule="evenodd"/></svg>