<svg width="491" height="500" viewBox="0 0 491 500" xmlns="http://www.w3.org/2000/svg" xmlns:xlink="http://www.w3.org/1999/xlink"><title>Page 1</title><defs><path id="a" d="M0 498.41V0h499.137v498.41z"/></defs><g transform="rotate(-30 250.5 248.009)" fill="none" fill-rule="evenodd"><mask id="b" fill="#fff"><use xlink:href="#a"/></mask><path d="M182.182 382.966c21.66 10.762 44.051 16.137 67.32 16.137 39.25 0 74.579-14.395 106.137-43.328l69.356 69.355v1.313c-50.168 47.972-108.371 71.968-174.188 71.968h-2.18c-73.96 0-137.398-29.37-189.886-88.105C19.487 361.16-.001 307.509-.001 249.638c0-73.86 29.375-137.395 88.113-190.754C135.8 19.622 190.034-.003 250.807-.003c73.274 0 136.528 29.371 189.598 88.254 39.106 49.434 58.734 102.942 58.734 160.52-.578 18.754-2.324 35.328-5.085 49.867H173.768l-41.047-97.07 257.375-1.797c-11.054-33.153-33.44-60.48-67.316-81.711-25.297-12.504-50.016-18.758-74.152-18.758-53.801 0-94.297 24.414-117.969 60.695-27.617 42.324-32.355 100.817-8.613 155.551 12.09 27.887 31.797 52.238 60.136 67.418" fill="#FFF" mask="url(#b)"/></g></svg>