<svg width="617" height="261" viewBox="0 0 617 261" xmlns="http://www.w3.org/2000/svg"><title>logo</title><g fill="none" fill-rule="evenodd"><path d="M202.514 62.108c35.783 0 65.06 29.283 65.06 65.059v29.148l-9.405-1.722-18.416 9.755v-39.213c0-20.48-16.764-37.238-37.238-37.238h-.002c-20.48 0-37.238 16.757-37.238 37.238v66.38h-27.82v-64.348c0-35.784 29.276-65.06 65.06-65.06zm250.167 129.394h25.385V0h-25.385v191.5zm82.968-29.554c5.545 2.755 11.277 4.131 17.233 4.131 10.05 0 19.093-3.685 27.171-11.091l17.756 17.755v.335c-12.843 12.281-27.747 18.424-44.593 18.424h-.557c-18.93 0-35.174-7.519-48.61-22.555-10.05-12.58-15.039-26.316-15.039-41.13 0-18.908 7.52-35.173 22.557-48.833 12.208-10.051 26.092-15.075 41.65-15.075 18.758 0 34.95 7.518 48.536 22.592 10.012 12.654 15.036 26.353 15.036 41.094-.148 4.8-.594 9.043-1.3 12.766h-81.995l-10.506-24.85 65.886-.46c-2.829-8.487-8.56-15.484-17.232-20.92-6.477-3.2-12.805-4.8-18.983-4.8-13.774 0-24.142 6.251-30.2 15.537-7.067 10.834-8.28 25.81-2.206 39.822 3.095 7.136 8.14 13.373 15.396 17.258zm-489.01 0c5.544 2.755 11.277 4.131 17.233 4.131 10.048 0 19.092-3.685 27.171-11.091l17.755 17.755v.335c-12.842 12.281-27.742 18.424-44.592 18.424h-.558c-18.933 0-35.173-7.519-48.61-22.555C4.99 156.367 0 142.631 0 127.817c0-18.908 7.52-35.173 22.556-48.833 12.21-10.051 26.092-15.075 41.65-15.075 18.758 0 34.951 7.518 48.538 22.592 10.011 12.654 15.035 26.353 15.035 41.094-.148 4.8-.595 9.043-1.302 12.766H44.484l-10.507-24.85 65.888-.46c-2.83-8.487-8.56-15.484-17.233-20.92-6.476-3.2-12.805-4.8-18.984-4.8-13.773 0-24.14 6.25-30.2 15.537-7.069 10.836-8.282 25.809-2.205 39.822 3.096 7.138 8.14 13.373 15.396 17.258z" fill="#FFF"/><path d="M412.895 89.798l25.972 13.661-58.191 80.687c-11.373 15.77-24.847 31.158-30.295 35.38-8.432 6.533-18.796 10.156-31.023 10.92-12.246.764-25.389-2.52-39.395-9.889-11.656-6.13-20.653-13.682-26.957-22.618a75.556 75.556 0 0 1-.724-1.047l-40.073 21.227-.035.017c-6.017 2.97-12.892-.645-15.287-8.04l-.392-1.212c3.211 3.25 7.739 4.31 11.864 2.274l.036-.018 51.328-27.187 64.082 11.74.122.02c3.589.524 7.199-1.005 9.758-4.164l75.814-90.689c2.441-3.014 3.573-7.079 3.396-11.062m10.357-34.864l12.968 8.038-13.74 23.972-20.524.51-.059.01-.19-2.888 16.978-.252 11.455-20.717-9.384-7.09z" fill="#999"/><path d="M365.95 123.344a5.313 5.313 0 0 1 2.414 4.442c0 2.918-2.39 5.307-5.307 5.307H326.88c-2.885 0-5.251-2.334-5.305-5.207a5.266 5.266 0 0 0 2.893.864h36.178c2.918 0 5.306-2.387 5.306-5.305l-.001-.1" fill="#999"/><path d="M399.041 88.441l-24.4 11.016c-2.095-1.81-4.498-3.429-7.212-4.857-9.95-5.234-20.144-6.288-30.51-3.126-10.398 3.145-18.181 9.669-23.361 19.517-4.212 8.01-5.031 15.791-2.495 23.272 2.547 7.506 6.127 9.028 14.648 13.509.142.076-5.308 15.316-5.593 16.785l-29.216-5.617a54.58 54.58 0 0 1-3.228-4.61c-5.154-8.149-7.777-17.229-7.914-27.223-.123-10.026 2.3-19.761 7.302-29.269 5.627-10.701 13.676-19.303 24.144-25.805 10.47-6.503 21.91-9.971 34.321-10.49 12.413-.519 23.815 1.954 34.177 7.404 4.942 2.599 9.121 5.77 12.553 9.498-.123.134 6.207 8.101 6.784 9.996m-93.194 148.022l62.037.333v23.375l-87.69-.333v-13.047z" fill="#999"/></g></svg>