<svg id="Layer_1" data-name="Layer 1" xmlns="http://www.w3.org/2000/svg" viewBox="0 0 875.2 774.72"><title>icon-customized</title><polyline points="622.75 572.75 622.75 622.75 572.75 622.75" style="fill:none;stroke:#011c5c;stroke-miterlimit:10;stroke-width:33.7456px"/><line x1="522.16" y1="622.75" x2="92.17" y2="622.75" style="fill:none;stroke:#011c5c;stroke-miterlimit:10;stroke-width:33.7456px;stroke-dasharray:101.17579650878906,50.58789825439453"/><polyline points="66.87 622.75 16.87 622.75 16.87 572.75" style="fill:none;stroke:#011c5c;stroke-miterlimit:10;stroke-width:33.7456px"/><line x1="16.87" y1="522.16" x2="16.87" y2="92.17" style="fill:none;stroke:#011c5c;stroke-miterlimit:10;stroke-width:33.7456px;stroke-dasharray:101.17569732666016,50.587799072265625"/><polyline points="16.87 66.87 16.87 16.87 66.87 16.87" style="fill:none;stroke:#011c5c;stroke-miterlimit:10;stroke-width:33.7456px"/><line x1="117.46" y1="16.87" x2="547.46" y2="16.87" style="fill:none;stroke:#011c5c;stroke-miterlimit:10;stroke-width:33.7456px;stroke-dasharray:101.17579650878906,50.58789825439453"/><polyline points="572.75 16.87 622.75 16.87 622.75 66.87" style="fill:none;stroke:#011c5c;stroke-miterlimit:10;stroke-width:33.7456px"/><line x1="622.75" y1="117.46" x2="622.75" y2="547.46" style="fill:none;stroke:#011c5c;stroke-miterlimit:10;stroke-width:33.7456px;stroke-dasharray:101.17569732666016,50.587799072265625"/><rect x="146.84" y="168.84" width="605.88" height="605.88" style="fill:#011c5c"/><g id="_8AtwOt" data-name="8AtwOt"><path d="M1171.84,935.22l5.05-1.64c14.22,4.09,25.79,13.9,38.46,21.7,80.11,49.33,160.77,100.94,243,150.67,5.84,3.53,15,9.15,16.68,14.82,6.11,21.26-37.58,19.44-53.06,21.43-18,2.32-33.66,4.33-49,6.14,17.35,24.13,38.68,51.91,58,77.48,6.68,8.85,15.54,17.48,18.48,26.8,4.71,14.95-2.54,25.92-14.11,33.9l-8.21,2.67c-20.94,2.8-28.79-14-41.13-29.91-18.76-24.16-43.13-56.05-59.45-77.7-9.59,24.79-17.94,50.37-26.82,76.42-2.88,8.43-3.48,20.62-14,23.4-16.73,4.41-20.73-25.13-27-44.29l-81.23-250C1170.48,965.4,1158.11,942.81,1171.84,935.22Z" transform="translate(-615.21 -604.21)" style="fill:#011c5c;stroke:#fff;stroke-miterlimit:10;stroke-width:29.599600000000002px;fill-rule:evenodd"/></g></svg>