<?xml version="1.0" encoding="UTF-8"?>
<svg width="48px" height="48px" viewBox="0 0 48 48" version="1.1" xmlns="http://www.w3.org/2000/svg" xmlns:xlink="http://www.w3.org/1999/xlink">
    <!-- Generator: Sketch 44.1 (41455) - http://www.bohemiancoding.com/sketch -->
    <title>linkedin</title>
    <desc>Created with Sketch.</desc>
    <defs></defs>
    <g id="About" stroke="none" stroke-width="1" fill="none" fill-rule="evenodd">
        <g id="about-v1" transform="translate(-97.000000, -271.000000)" fill="#000000">
            <path d="M121,271 C127.629663,271 133.287014,273.342569 137.972222,278.027778 C142.657431,282.712986 145,288.370337 145,295 C145,301.629663 142.657431,307.287014 137.972222,311.972222 C133.287014,316.657431 127.629663,319 121,319 C114.370337,319 108.712986,316.657431 104.027778,311.972222 C99.3425692,307.287014 97,301.629663 97,295 C97,288.370337 99.3425692,282.712986 104.027778,278.027778 C108.712986,273.342569 114.370337,271 121,271 Z M114,307 L114,290 L108,290 L108,307 L114,307 Z M111,287 C112.185191,287 113.148144,286.66667 113.888889,286 C114.629633,285.33333 115,284.500005 115,283.5 C114.962963,282.462958 114.583337,281.620374 113.861111,280.972222 C113.138885,280.324071 112.185191,280 111,280 C109.814809,280 108.851856,280.33333 108.111111,281 C107.370367,281.66667 107,282.499995 107,283.5 C107,284.500005 107.361108,285.33333 108.083333,286 C108.805559,286.66667 109.759253,287 110.944444,287 L111,287 Z M136,307 L136,298 C136,295.259246 135.370377,293.074082 134.111111,291.444444 C132.851846,289.814807 131.148159,289 129,289 C127.814809,289 126.787041,289.324071 125.916667,289.972222 C125.046292,290.620374 124.407409,291.499994 124,292.611111 L123.777778,290 L117.833333,290 L118,294 L118,307 L124,307 L124,298 C124,296.777772 124.259257,295.805559 124.777778,295.083333 C125.296299,294.361108 126.018514,294 126.944444,294 C128.981492,294 130,295.33332 130,298 L130,307 L136,307 Z" id="linkedin"></path>
        </g>
    </g>
</svg>