<?xml version="1.0" encoding="UTF-8"?>
<svg width="48px" height="30px" viewBox="0 0 48 30" version="1.1" xmlns="http://www.w3.org/2000/svg" xmlns:xlink="http://www.w3.org/1999/xlink">
    <!-- Generator: Sketch 46.1 (44463) - http://www.bohemiancoding.com/sketch -->
    <title>Page 1</title>
    <desc>Created with Sketch.</desc>
    <defs></defs>
    <g id="Page-1" stroke="none" stroke-width="1" fill="none" fill-rule="evenodd">
        <g id="Mobile" transform="translate(-73.000000, -457.000000)" fill="#000000">
            <g id="Page-1" transform="translate(73.000000, 457.000000)">
                <path d="M41.651778,3.10775463 L5.9171796,3.10775463 C11.6701366,7.90940527 17.2023904,12.5631957 22.8085744,17.126748 C23.190456,17.4371457 24.2580934,17.2852084 24.7753323,16.9693748 C25.8087227,16.338251 26.6765859,15.438587 27.6213689,14.6598748 C32.2137322,10.8755783 36.8093571,7.09454347 41.651778,3.10775463 M3.07440455,4.83994752 L3.07440455,26.8626886 L44.3499545,26.8626886 L44.3499545,4.9432322 C41.8735683,6.91189266 39.6072848,8.67017852 37.3880231,10.4869018 C33.2218451,13.8974708 29.113289,17.3797955 24.892207,20.7205114 C24.4064972,21.1048392 23.1167977,21.102393 22.6109745,20.7264911 C20.0758791,18.8418174 17.6791308,16.7717748 15.231012,14.7702264 C11.2890704,11.5477442 7.34495447,8.32825185 3.07440455,4.83994752 M23.7539011,29.9783526 C16.6411197,29.9783526 9.52833835,29.981886 2.41555698,29.9761782 C0.205808325,29.9742756 0.00576219821,29.7766757 0.0041313874,27.5794299 C-0.00157645045,19.1897237 -0.00130464865,10.8002892 0.0041313874,2.41112661 C0.00549039641,0.201377955 0.201459496,0.00377804505 2.40441311,0.00296263965 C16.6299758,-0.00111438739 30.8555386,-0.00111438739 45.0811013,0.00323444145 C47.2889474,0.00377804505 47.4914397,0.205726784 47.4930705,2.40106994 C47.4990502,10.7905044 47.4987784,19.1799388 47.4930705,27.5696451 C47.4917115,29.7774911 47.2951988,29.9742756 45.092517,29.9761782 C37.9797356,29.9821579 30.8666825,29.9783526 23.7539011,29.9783526" id="Fill-1"></path>
            </g>
        </g>
    </g>
</svg>