<svg id="Layer_1" data-name="Layer 1" xmlns="http://www.w3.org/2000/svg" viewBox="0 0 1728.49 985.13"><title>icon-flag</title><rect x="15.34" y="15.34" width="708.73" height="599.88" style="fill:#011c5c"/><line x1="724.07" y1="201.64" x2="1709.09" y2="201.64" style="fill:none;stroke:#011c5c;stroke-miterlimit:10;stroke-width:33.7456px"/><line x1="724.07" y1="404.11" x2="1709.09" y2="404.11" style="fill:none;stroke:#011c5c;stroke-miterlimit:10;stroke-width:33.7456px"/><line x1="724.07" y1="598.49" x2="1709.09" y2="598.49" style="fill:none;stroke:#011c5c;stroke-miterlimit:10;stroke-width:33.7456px"/><line x1="22.16" y1="776.66" x2="1709.09" y2="776.66" style="fill:none;stroke:#011c5c;stroke-miterlimit:10;stroke-width:33.7456px"/><polygon points="283.79 208.74 292.76 267.44 240.71 238.85 187.66 265.52 198.76 207.18 157.01 164.96 215.92 157.5 243.17 104.74 268.47 158.46 327.07 168.08 283.79 208.74" style="fill:#fff"/><polygon points="519.28 208.74 528.25 267.44 476.2 238.85 423.15 265.52 434.25 207.18 392.5 164.96 451.41 157.5 478.66 104.74 503.96 158.46 562.56 168.08 519.28 208.74" style="fill:#fff"/><polygon points="283.79 423.41 292.76 482.11 240.71 453.52 187.66 480.19 198.76 421.85 157.01 379.63 215.92 372.17 243.17 319.41 268.47 373.13 327.07 382.75 283.79 423.41" style="fill:#fff"/><polygon points="519.28 423.41 528.25 482.11 476.2 453.52 423.15 480.19 434.25 421.85 392.5 379.63 451.41 372.17 478.66 319.41 503.96 373.13 562.56 382.75 519.28 423.41" style="fill:#fff"/><rect x="15.34" y="15.34" width="1697.8" height="954.44" style="fill:none;stroke:#011c5c;stroke-miterlimit:10;stroke-width:30.686600000000002px"/></svg>