<?xml version="1.0" encoding="UTF-8"?>
<svg width="491px" height="500px" viewBox="0 0 491 500" version="1.1" xmlns="http://www.w3.org/2000/svg" xmlns:xlink="http://www.w3.org/1999/xlink">
    <!-- Generator: Sketch 44.1 (41455) - http://www.bohemiancoding.com/sketch -->
    <title>Page 1</title>
    <desc>Created with Sketch.</desc>
    <defs>
        <polygon id="path-1" points="0 498.410156 0 0 499.136719 0 499.136719 498.410156"></polygon>
    </defs>
    <g id="Page-1" stroke="none" stroke-width="1" fill="none" fill-rule="evenodd">
        <g id="Tablet" transform="translate(-72.000000, -73.000000)">
            <g id="Page-1" transform="translate(322.750000, 322.441987) rotate(-30.000000) translate(-322.750000, -322.441987) translate(72.750000, 73.066987)">
                <mask id="mask-2" fill="white">
                    <use xlink:href="#path-1"></use>
                </mask>
                <g id="Clip-2"></g>
                <path d="M182.182422,382.966016 C203.842578,393.727734 226.233203,399.102734 249.502734,399.102734 C288.752734,399.102734 324.080859,384.708203 355.639453,355.774609 L424.994922,425.130078 L424.994922,426.442578 C374.826953,474.415234 316.623828,498.411328 250.807422,498.411328 L248.627734,498.411328 C174.666797,498.411328 111.229297,469.040234 58.7410156,410.305859 C19.4871094,361.161328 -0.001171875,307.508984 -0.001171875,249.637891 C-0.001171875,175.778516 29.3738281,112.243359 88.1121094,58.8839844 C135.799609,19.6222656 190.033984,-0.002734375 250.807422,-0.002734375 C324.080859,-0.002734375 387.334766,29.3683594 440.405078,88.2511719 C479.510547,137.684766 499.139453,191.192578 499.139453,248.770703 C498.561328,267.524609 496.815234,284.098828 494.053516,298.637891 L173.768359,298.637891 L132.721484,201.567578 L390.096484,199.770703 C379.041797,166.618359 356.655078,139.290234 322.780078,118.059766 C297.483203,105.555859 272.764453,99.3019531 248.627734,99.3019531 C194.826953,99.3019531 154.330859,123.716016 130.658984,159.997266 C103.041797,202.321484 98.3035156,260.813672 122.045703,315.548047 C134.135547,343.434766 153.842578,367.786328 182.182422,382.966016" id="Fill-1" fill="#FFFFFF" mask="url(#mask-2)"></path>
            </g>
        </g>
    </g>
</svg>