<?xml version="1.0" encoding="UTF-8"?>
<svg width="617px" height="261px" viewBox="0 0 617 261" version="1.1" xmlns="http://www.w3.org/2000/svg" xmlns:xlink="http://www.w3.org/1999/xlink">
    <!-- Generator: Sketch 44.1 (41455) - http://www.bohemiancoding.com/sketch -->
    <title>logo</title>
    <desc>Created with Sketch.</desc>
    <defs></defs>
    <g id="Page-1" stroke="none" stroke-width="1" fill="none" fill-rule="evenodd">
        <g id="Tablet" transform="translate(-75.000000, -382.000000)">
            <g id="logo" transform="translate(75.000000, 381.000000)">
                <path d="M202.5141,63.1075 L202.5141,63.1075 C238.2971,63.1075 267.5731,92.3915 267.5731,128.1665 L267.5731,157.3155 L258.1691,155.5925 L239.7531,165.3475 L239.7531,126.1355 C239.7531,105.6545 222.9891,88.8975 202.5151,88.8975 L202.5131,88.8975 C182.0321,88.8975 165.2751,105.6545 165.2751,126.1355 L165.2751,192.5145 L137.4551,192.5145 L137.4551,128.1665 C137.4551,92.3835 166.7311,63.1075 202.5141,63.1075 L202.5141,63.1075 Z M452.6811,192.5015 L478.0661,192.5015 L478.0661,0.9995 L452.6811,0.9995 L452.6811,192.5015 Z M535.6491,162.9485 C541.1941,165.7035 546.9261,167.0795 552.8821,167.0795 C562.9311,167.0795 571.9751,163.3945 580.0531,155.9875 L597.8091,173.7425 L597.8091,174.0785 C584.9661,186.3595 570.0621,192.5025 553.2161,192.5025 L552.6591,192.5025 C533.7291,192.5025 517.4851,184.9835 504.0481,169.9475 C493.9981,157.3665 489.0101,143.6305 489.0101,128.8165 C489.0101,109.9085 496.5301,93.6435 511.5671,79.9835 C523.7751,69.9325 537.6591,64.9085 553.2161,64.9085 C571.9751,64.9085 588.1671,72.4275 601.7531,87.5015 C611.7651,100.1555 616.7891,113.8545 616.7891,128.5945 C616.6411,133.3955 616.1951,137.6385 615.4881,141.3605 L533.4941,141.3605 L522.9881,116.5105 L588.8741,116.0505 C586.0451,107.5635 580.3141,100.5665 571.6421,95.1315 C565.1651,91.9315 558.8371,90.3305 552.6591,90.3305 C538.8851,90.3305 528.5171,96.5825 522.4581,105.8685 C515.3921,116.7015 514.1791,131.6775 520.2531,145.6895 C523.3481,152.8255 528.3931,159.0625 535.6491,162.9485 L535.6491,162.9485 Z M46.6391,162.9485 C52.1831,165.7035 57.9161,167.0795 63.8721,167.0795 C73.9201,167.0795 82.9641,163.3945 91.0431,155.9875 L108.7981,173.7425 L108.7981,174.0785 C95.9561,186.3595 81.0561,192.5025 64.2061,192.5025 L63.6481,192.5025 C44.7151,192.5025 28.4751,184.9835 15.0381,169.9475 C4.9891,157.3665 0.0001,143.6305 0.0001,128.8165 C0.0001,109.9085 7.5191,93.6435 22.5561,79.9835 C34.7651,69.9325 48.6481,64.9085 64.2061,64.9085 C82.9641,64.9085 99.1571,72.4275 112.7441,87.5015 C122.7551,100.1555 127.7791,113.8545 127.7791,128.5945 C127.6311,133.3955 127.1841,137.6385 126.4771,141.3605 L44.4841,141.3605 L33.9771,116.5105 L99.8651,116.0505 C97.0351,107.5635 91.3041,100.5665 82.6321,95.1315 C76.1561,91.9315 69.8271,90.3305 63.6481,90.3305 C49.8751,90.3305 39.5081,96.5805 33.4481,105.8685 C26.3791,116.7035 25.1661,131.6765 31.2431,145.6895 C34.3391,152.8285 39.3831,159.0625 46.6391,162.9485 L46.6391,162.9485 Z" id="Fill-1" fill="#FFFFFF"></path>
                <path d="M412.895,90.7984 L438.867,104.4594 L380.676,185.1464 C369.303,200.9164 355.829,216.3044 350.381,220.5264 C341.949,227.0594 331.585,230.6824 319.358,231.4464 C307.112,232.2104 293.969,228.9254 279.963,221.5574 C268.307,215.4274 259.31,207.8754 253.006,198.9394 C252.76,198.5904 252.52,198.2424 252.282,197.8924 L212.209,219.1194 L212.174,219.1364 C206.157,222.1064 199.282,218.4914 196.887,211.0964 L196.495,209.8844 C199.706,213.1344 204.234,214.1944 208.359,212.1584 L208.395,212.1404 L259.723,184.9534 L323.805,196.6934 L323.927,196.7124 C327.516,197.2374 331.126,195.7084 333.685,192.5494 L409.499,101.8604 C411.94,98.8464 413.072,94.7814 412.895,90.7984" id="Fill-4" fill="#999999"></path>
                <polygon id="Fill-6" fill="#999999" points="423.2524 55.9337 436.2204 63.9717 422.4794 87.9437 401.9564 88.4547 401.8974 88.4647 401.7064 85.5757 418.6854 85.3237 430.1404 64.6067 420.7564 57.5167"></polygon>
                <path d="M365.9507,124.3443 C367.4007,125.2943 368.3637,126.9323 368.3637,128.7863 C368.3637,131.7043 365.9747,134.0933 363.0567,134.0933 L326.8797,134.0933 C323.9947,134.0933 321.6287,131.7593 321.5747,128.8863 C322.4087,129.4323 323.4027,129.7503 324.4677,129.7503 L360.6457,129.7503 C363.5637,129.7503 365.9517,127.3633 365.9517,124.4453 L365.9517,124.4443 C365.9517,124.4113 365.9507,124.3773 365.9507,124.3443" id="Fill-8" fill="#999999"></path>
                <path d="M399.0415,89.441 L374.6405,100.457 C372.5465,98.647 370.1435,97.028 367.4295,95.6 C357.4785,90.366 347.2845,89.312 336.9195,92.474 C326.5205,95.619 318.7375,102.143 313.5575,111.991 C309.3455,120.001 308.5265,127.782 311.0635,135.263 C313.6095,142.769 317.1905,144.291 325.7105,148.772 C325.8525,148.848 320.4035,164.088 320.1185,165.557 L290.9025,159.94 C289.7565,158.472 288.6805,156.937 287.6735,155.33 C282.5195,147.181 279.8965,138.101 279.7595,128.107 C279.6375,118.081 282.0595,108.346 287.0615,98.838 C292.6895,88.137 300.7385,79.535 311.2065,73.033 C321.6755,66.53 333.1155,63.062 345.5275,62.543 C357.9395,62.024 369.3425,64.497 379.7035,69.947 C384.6455,72.546 388.8255,75.717 392.2565,79.445 C392.1335,79.579 398.4645,87.546 399.0415,89.441" id="Fill-10" fill="#999999"></path>
                <polygon id="Fill-12" fill="#999999" points="305.8471 237.463 367.8841 237.796 367.8841 261.171 280.1931 260.838 280.1931 254.315 280.1931 247.791"></polygon>
            </g>
        </g>
    </g>
</svg>